{
  "asset": {
    "version": "2.0",
    "generator": "THREE.GLTFExporter"
  },
  "scenes": [
    {
      "name": "AuxScene",
      "nodes": [
        1
      ]
    }
  ],
  "scene": 0,
  "nodes": [
    {
      "scale": [
        0.1,
        0.1,
        0.1
      ],
      "name": "Heart_D",
      "mesh": 0
    },
    {
      "children": [
        0
      ]
    }
  ],
  "bufferViews": [
    {
      "buffer": 0,
      "byteOffset": 0,
      "byteLength": 9420,
      "target": 34962,
      "byteStride": 12
    },
    {
      "buffer": 0,
      "byteOffset": 9420,
      "byteLength": 9420,
      "target": 34962,
      "byteStride": 12
    },
    {
      "buffer": 0,
      "byteOffset": 18840,
      "byteLength": 9420,
      "target": 34962,
      "byteStride": 12
    },
    {
      "buffer": 0,
      "byteOffset": 28260,
      "byteLength": 9420,
      "target": 34962,
      "byteStride": 12
    },
    {
      "buffer": 0,
      "byteOffset": 37680,
      "byteLength": 9420,
      "target": 34962,
      "byteStride": 12
    },
    {
      "buffer": 0,
      "byteOffset": 47100,
      "byteLength": 9420,
      "target": 34962,
      "byteStride": 12
    },
    {
      "buffer": 0,
      "byteOffset": 56520,
      "byteLength": 9420,
      "target": 34962,
      "byteStride": 12
    },
    {
      "buffer": 0,
      "byteOffset": 65940,
      "byteLength": 9420,
      "target": 34962,
      "byteStride": 12
    },
    {
      "buffer": 0,
      "byteOffset": 75360,
      "byteLength": 9420,
      "target": 34962,
      "byteStride": 12
    },
    {
      "buffer": 0,
      "byteOffset": 84780,
      "byteLength": 9420,
      "target": 34962,
      "byteStride": 12
    },
    {
      "buffer": 0,
      "byteOffset": 94200,
      "byteLength": 9420,
      "target": 34962,
      "byteStride": 12
    },
    {
      "buffer": 0,
      "byteOffset": 103620,
      "byteLength": 9420,
      "target": 34962,
      "byteStride": 12
    },
    {
      "buffer": 0,
      "byteOffset": 113040,
      "byteLength": 9420,
      "target": 34962,
      "byteStride": 12
    },
    {
      "buffer": 0,
      "byteOffset": 122460,
      "byteLength": 9420,
      "target": 34962,
      "byteStride": 12
    },
    {
      "buffer": 0,
      "byteOffset": 131880,
      "byteLength": 9420,
      "target": 34962,
      "byteStride": 12
    },
    {
      "buffer": 0,
      "byteOffset": 141300,
      "byteLength": 9420,
      "target": 34962,
      "byteStride": 12
    },
    {
      "buffer": 0,
      "byteOffset": 150720,
      "byteLength": 9420,
      "target": 34962,
      "byteStride": 12
    },
    {
      "buffer": 0,
      "byteOffset": 160140,
      "byteLength": 9420,
      "target": 34962,
      "byteStride": 12
    },
    {
      "buffer": 0,
      "byteOffset": 169560,
      "byteLength": 9420,
      "target": 34962,
      "byteStride": 12
    },
    {
      "buffer": 0,
      "byteOffset": 178980,
      "byteLength": 9420,
      "target": 34962,
      "byteStride": 12
    },
    {
      "buffer": 0,
      "byteOffset": 188400,
      "byteLength": 9420,
      "target": 34962,
      "byteStride": 12
    },
    {
      "buffer": 0,
      "byteOffset": 197820,
      "byteLength": 9420,
      "target": 34962,
      "byteStride": 12
    },
    {
      "buffer": 0,
      "byteOffset": 207240,
      "byteLength": 9420,
      "target": 34962,
      "byteStride": 12
    },
    {
      "buffer": 0,
      "byteOffset": 216660,
      "byteLength": 9420,
      "target": 34962,
      "byteStride": 12
    },
    {
      "buffer": 0,
      "byteOffset": 226080,
      "byteLength": 9420,
      "target": 34962,
      "byteStride": 12
    },
    {
      "buffer": 0,
      "byteOffset": 235500,
      "byteLength": 9420,
      "target": 34962,
      "byteStride": 12
    },
    {
      "buffer": 0,
      "byteOffset": 244920,
      "byteLength": 9420,
      "target": 34962,
      "byteStride": 12
    },
    {
      "buffer": 0,
      "byteOffset": 254340,
      "byteLength": 9420,
      "target": 34962,
      "byteStride": 12
    },
    {
      "buffer": 0,
      "byteOffset": 263760,
      "byteLength": 9420,
      "target": 34962,
      "byteStride": 12
    },
    {
      "buffer": 0,
      "byteOffset": 273180,
      "byteLength": 9420,
      "target": 34962,
      "byteStride": 12
    },
    {
      "buffer": 0,
      "byteOffset": 282600,
      "byteLength": 9420,
      "target": 34962,
      "byteStride": 12
    },
    {
      "buffer": 0,
      "byteOffset": 292020,
      "byteLength": 9420,
      "target": 34962,
      "byteStride": 12
    },
    {
      "buffer": 0,
      "byteOffset": 301440,
      "byteLength": 9408,
      "target": 34963
    },
    {
      "buffer": 0,
      "byteOffset": 310848,
      "byteLength": 244
    },
    {
      "buffer": 0,
      "byteOffset": 311092,
      "byteLength": 7320
    }
  ],
  "buffers": [
    {
      "byteLength": 318412,
      "uri": "data:application/octet-stream;base64,"
    }
  ],
  "accessors": [
    {
      "bufferView": 0,
      "componentType": 5126,
      "count": 785,
      "max": [
        40.83000183105469,
        42.88699722290039,
        40.56999969482422
      ],
      "min": [
        -40.83000183105469,
        -42.88699722290039,
        -40.56999969482422
      ],
      "type": "VEC3"
    },
    {
      "bufferView": 1,
      "componentType": 5126,
      "count": 785,
      "max": [
        0.9966820478439331,
        0.9953830242156982,
        0.9986622929573059
      ],
      "min": [
        -0.8617830276489258,
        -0.9990285634994507,
        -0.999674916267395
      ],
      "type": "VEC3"
    },
    {
      "bufferView": 2,
      "componentType": 5126,
      "count": 785,
      "max": [
        1.3099985122680664,
        0.38100242614746094,
        1.2159996032714844
      ],
      "min": [
        -0.7509956359863281,
        -1.4159984588623047,
        -1.1269989013671875
      ],
      "type": "VEC3"
    },
    {
      "bufferView": 3,
      "componentType": 5126,
      "count": 785,
      "max": [
        4.231498718261719,
        0.8814964294433594,
        2.823497772216797
      ],
      "min": [
        -2.2645034790039062,
        -3.988496780395508,
        -3.2644996643066406
      ],
      "type": "VEC3"
    },
    {
      "bufferView": 4,
      "componentType": 5126,
      "count": 785,
      "max": [
        7.494503021240234,
        3.240997314453125,
        7.0970001220703125
      ],
      "min": [
        -5.1645050048828125,
        -8.05000114440918,
        -7.069999694824219
      ],
      "type": "VEC3"
    },
    {
      "bufferView": 5,
      "componentType": 5126,
      "count": 785,
      "max": [
        6.159000396728516,
        1.936492919921875,
        4.960498809814453
      ],
      "min": [
        -3.805999755859375,
        -6.065500259399414,
        -5.244499206542969
      ],
      "type": "VEC3"
    },
    {
      "bufferView": 6,
      "componentType": 5126,
      "count": 785,
      "max": [
        8.943998336791992,
        4.826496124267578,
        9.184501647949219
      ],
      "min": [
        -6.339000701904297,
        -10.325498580932617,
        -8.632499694824219
      ],
      "type": "VEC3"
    },
    {
      "bufferView": 7,
      "componentType": 5126,
      "count": 785,
      "max": [
        10.29350471496582,
        6.38800048828125,
        10.869998931884766
      ],
      "min": [
        -7.442497253417969,
        -12.69999885559082,
        -10.227001190185547
      ],
      "type": "VEC3"
    },
    {
      "bufferView": 8,
      "componentType": 5126,
      "count": 785,
      "max": [
        11.32449722290039,
        7.667999267578125,
        12.217998504638672
      ],
      "min": [
        -8.485502243041992,
        -14.864999771118164,
        -11.778999328613281
      ],
      "type": "VEC3"
    },
    {
      "bufferView": 9,
      "componentType": 5126,
      "count": 785,
      "max": [
        12.717498779296875,
        8.566497802734375,
        13.066499710083008
      ],
      "min": [
        -9.765501022338867,
        -16.46249771118164,
        -13.399499893188477
      ],
      "type": "VEC3"
    },
    {
      "bufferView": 10,
      "componentType": 5126,
      "count": 785,
      "max": [
        13.726499557495117,
        9.03249740600586,
        13.294998168945312
      ],
      "min": [
        -10.745506286621094,
        -17.043500900268555,
        -14.46099853515625
      ],
      "type": "VEC3"
    },
    {
      "bufferView": 11,
      "componentType": 5126,
      "count": 785,
      "max": [
        13.406000137329102,
        8.94100570678711,
        12.330501556396484
      ],
      "min": [
        -10.865001678466797,
        -16.186996459960938,
        -14.309499740600586
      ],
      "type": "VEC3"
    },
    {
      "bufferView": 12,
      "componentType": 5126,
      "count": 785,
      "max": [
        8.271501541137695,
        6.099000930786133,
        6.471498489379883
      ],
      "min": [
        -6.794502258300781,
        -8.014999389648438,
        -8.09050178527832
      ],
      "type": "VEC3"
    },
    {
      "bufferView": 13,
      "componentType": 5126,
      "count": 785,
      "max": [
        12.782999038696289,
        8.632499694824219,
        11.26500129699707
      ],
      "min": [
        -10.490005493164062,
        -15.04749870300293,
        -13.603998184204102
      ],
      "type": "VEC3"
    },
    {
      "bufferView": 14,
      "componentType": 5126,
      "count": 785,
      "max": [
        11.924503326416016,
        8.26950454711914,
        9.84000015258789
      ],
      "min": [
        -9.842504501342773,
        -13.560501098632812,
        -12.558998107910156
      ],
      "type": "VEC3"
    },
    {
      "bufferView": 15,
      "componentType": 5126,
      "count": 785,
      "max": [
        10.384504318237305,
        7.308498382568359,
        7.872499465942383
      ],
      "min": [
        -8.537504196166992,
        -11.159502029418945,
        -10.737499237060547
      ],
      "type": "VEC3"
    },
    {
      "bufferView": 16,
      "componentType": 5126,
      "count": 785,
      "max": [
        6.411500930786133,
        6.5450029373168945,
        5.552997589111328
      ],
      "min": [
        -5.336494445800781,
        -5.484996795654297,
        -5.891002655029297
      ],
      "type": "VEC3"
    },
    {
      "bufferView": 17,
      "componentType": 5126,
      "count": 785,
      "max": [
        5.260503768920898,
        6.512998580932617,
        4.772998809814453
      ],
      "min": [
        -4.3905029296875,
        -4.588001251220703,
        -4.930002212524414
      ],
      "type": "VEC3"
    },
    {
      "bufferView": 18,
      "componentType": 5126,
      "count": 785,
      "max": [
        4.75250244140625,
        6.018001556396484,
        3.845996856689453
      ],
      "min": [
        -3.8895034790039062,
        -4.694999694824219,
        -4.747001647949219
      ],
      "type": "VEC3"
    },
    {
      "bufferView": 19,
      "componentType": 5126,
      "count": 785,
      "max": [
        4.428504943847656,
        5.041999816894531,
        3.188997268676758
      ],
      "min": [
        -3.5004959106445312,
        -4.8899993896484375,
        -4.639997482299805
      ],
      "type": "VEC3"
    },
    {
      "bufferView": 20,
      "componentType": 5126,
      "count": 785,
      "max": [
        4.191505432128906,
        4.020502090454102,
        3.3240013122558594
      ],
      "min": [
        -2.868499755859375,
        -4.8964996337890625,
        -4.063997268676758
      ],
      "type": "VEC3"
    },
    {
      "bufferView": 21,
      "componentType": 5126,
      "count": 785,
      "max": [
        4.452003479003906,
        4.736995697021484,
        3.5214996337890625
      ],
      "min": [
        -2.533000946044922,
        -4.928001403808594,
        -3.0364990234375
      ],
      "type": "VEC3"
    },
    {
      "bufferView": 22,
      "componentType": 5126,
      "count": 785,
      "max": [
        4.294002532958984,
        4.327999114990234,
        3.467498779296875
      ],
      "min": [
        -2.7689971923828125,
        -4.8209991455078125,
        -3.7334976196289062
      ],
      "type": "VEC3"
    },
    {
      "bufferView": 23,
      "componentType": 5126,
      "count": 785,
      "max": [
        4.227504730224609,
        4.085005760192871,
        2.930500030517578
      ],
      "min": [
        -3.2134971618652344,
        -4.931995391845703,
        -4.543497085571289
      ],
      "type": "VEC3"
    },
    {
      "bufferView": 24,
      "componentType": 5126,
      "count": 785,
      "max": [
        4.147003173828125,
        3.7740039825439453,
        3.056497573852539
      ],
      "min": [
        -3.0079994201660156,
        -4.969997406005859,
        -4.389497756958008
      ],
      "type": "VEC3"
    },
    {
      "bufferView": 25,
      "componentType": 5126,
      "count": 785,
      "max": [
        4.400505065917969,
        4.692499160766602,
        3.3404998779296875
      ],
      "min": [
        -2.3334999084472656,
        -5.024497985839844,
        -3.159499168395996
      ],
      "type": "VEC3"
    },
    {
      "bufferView": 26,
      "componentType": 5126,
      "count": 785,
      "max": [
        4.403003692626953,
        4.586498260498047,
        3.545001983642578
      ],
      "min": [
        -2.6750030517578125,
        -4.860496520996094,
        -3.2610015869140625
      ],
      "type": "VEC3"
    },
    {
      "bufferView": 27,
      "componentType": 5126,
      "count": 785,
      "max": [
        4.271503448486328,
        4.507999420166016,
        3.0375022888183594
      ],
      "min": [
        -2.079498291015625,
        -5.088996887207031,
        -3.401498794555664
      ],
      "type": "VEC3"
    },
    {
      "bufferView": 28,
      "componentType": 5126,
      "count": 785,
      "max": [
        3.1225051879882812,
        3.296998977661133,
        1.9365005493164062
      ],
      "min": [
        -1.0275001525878906,
        -4.631999969482422,
        -2.930500030517578
      ],
      "type": "VEC3"
    },
    {
      "bufferView": 29,
      "componentType": 5126,
      "count": 785,
      "max": [
        2.3655052185058594,
        2.9335031509399414,
        2.2064990997314453
      ],
      "min": [
        -2.4054975509643555,
        -4.297496795654297,
        -2.878498077392578
      ],
      "type": "VEC3"
    },
    {
      "bufferView": 30,
      "componentType": 5126,
      "count": 785,
      "max": [
        3.926006317138672,
        4.104496002197266,
        2.602996826171875
      ],
      "min": [
        -1.6789970397949219,
        -5.047496795654297,
        -3.3610000610351562
      ],
      "type": "VEC3"
    },
    {
      "bufferView": 31,
      "componentType": 5126,
      "count": 785,
      "max": [
        2.005504608154297,
        2.690000534057617,
        2.2230005264282227
      ],
      "min": [
        -2.5004987716674805,
        -4.297000885009766,
        -2.776996612548828
      ],
      "type": "VEC3"
    },
    {
      "bufferView": 32,
      "componentType": 5123,
      "count": 4704,
      "max": [
        784
      ],
      "min": [
        0
      ],
      "type": "SCALAR"
    },
    {
      "bufferView": 33,
      "componentType": 5126,
      "count": 61,
      "max": [
        60
      ],
      "min": [
        0
      ],
      "type": "SCALAR"
    },
    {
      "bufferView": 34,
      "componentType": 5126,
      "count": 1830,
      "max": [
        1
      ],
      "min": [
        0
      ],
      "type": "SCALAR"
    }
  ],
  "materials": [
    {
      "pbrMetallicRoughness": {
        "baseColorFactor": [
          1,
          0.9411764705882353,
          0,
          1
        ],
        "metallicFactor": 0,
        "roughnessFactor": 1
      },
      "doubleSided": true
    }
  ],
  "meshes": [
    {
      "weights": [
        0,
        0,
        0,
        0,
        0.9054999999999911,
        0,
        0,
        0,
        0,
        0,
        0,
        0,
        0,
        0,
        0,
        0,
        0,
        0,
        0,
        0,
        0,
        0,
        0,
        0,
        0,
        0,
        0,
        0,
        0,
        0
      ],
      "extras": {
        "targetNames": [
          "0",
          "1",
          "2",
          "3",
          "4",
          "5",
          "6",
          "7",
          "8",
          "9",
          "10",
          "11",
          "12",
          "13",
          "14",
          "15",
          "16",
          "17",
          "18",
          "19",
          "20",
          "21",
          "22",
          "23",
          "24",
          "25",
          "26",
          "27",
          "28",
          "29"
        ]
      },
      "primitives": [
        {
          "mode": 4,
          "attributes": {
            "POSITION": 0,
            "NORMAL": 1
          },
          "targets": [
            {
              "POSITION": 2
            },
            {
              "POSITION": 3
            },
            {
              "POSITION": 4
            },
            {
              "POSITION": 5
            },
            {
              "POSITION": 6
            },
            {
              "POSITION": 7
            },
            {
              "POSITION": 8
            },
            {
              "POSITION": 9
            },
            {
              "POSITION": 10
            },
            {
              "POSITION": 11
            },
            {
              "POSITION": 12
            },
            {
              "POSITION": 13
            },
            {
              "POSITION": 14
            },
            {
              "POSITION": 15
            },
            {
              "POSITION": 16
            },
            {
              "POSITION": 17
            },
            {
              "POSITION": 18
            },
            {
              "POSITION": 19
            },
            {
              "POSITION": 20
            },
            {
              "POSITION": 21
            },
            {
              "POSITION": 22
            },
            {
              "POSITION": 23
            },
            {
              "POSITION": 24
            },
            {
              "POSITION": 25
            },
            {
              "POSITION": 26
            },
            {
              "POSITION": 27
            },
            {
              "POSITION": 28
            },
            {
              "POSITION": 29
            },
            {
              "POSITION": 30
            },
            {
              "POSITION": 31
            }
          ],
          "indices": 32,
          "material": 0
        }
      ]
    }
  ],
  "animations": [
    {
      "name": "copper3d_heart_morph",
      "samplers": [
        {
          "input": 33,
          "output": 34,
          "interpolation": "LINEAR"
        }
      ],
      "channels": [
        {
          "sampler": 0,
          "target": {
            "node": 0,
            "path": "weights"
          }
        }
      ]
    }
  ]
}